<!-- https://www.reshot.com/free-svg-icons/item/flag-TYWNMLC5PF/ -->
<svg xmlns="http://www.w3.org/2000/svg" viewBox="0 0 64 64"><path d="M19 9a4 4 0 0 1-1.56 3.17 4 4 0 0 1-.43.29A4 4 0 1 1 19 9z"/><path d="M17 12.46V59h-4V12.46a4 4 0 0 0 4 0zM37 15v21.15a2.13 2.13 0 0 0-.42-.1h-.1a2.6 2.6 0 0 0-.4 0H19V14h17a1 1 0 0 1 1 1z"/><path d="M48.05 33.32 51.61 44H27.92a.92.92 0 0 1-.92-.92v-.16a.92.92 0 0 1 .92-.92h8.16A2.92 2.92 0 0 0 39 39.08V22h12.61l-3.56 10.68a1 1 0 0 0 0 .64z"/><path d="M37 38.92v.16a.92.92 0 0 1-.92.92h-8.16a2.6 2.6 0 0 0-.4 0h-.1a2.13 2.13 0 0 0-.42.1V38h9.08a.92.92 0 0 1 .92.92z"/></svg>