<?xml version="1.0" encoding="UTF-8" standalone="no"?>
<!-- Source: https://www.svgrepo.com/svg/377919/preferences-mail-accounts -->
<svg xmlns:svg="http://www.w3.org/2000/svg"
     xmlns="http://www.w3.org/2000/svg"
     xmlns:xlink="http://www.w3.org/1999/xlink"
     width="128" height="128" version="1.1">
    <path d="m 81.109373,17.28125 c -9.777973,0 -17.656251,10.030076 -17.656251,22.375 0,12.344926 7.878278,22.375 17.656251,22.375 9.77794,0 17.71875,-10.030074 17.71875,-22.375 0,-12.344924 -7.94081,-22.375 -17.71875,-22.375 z M 41.078122,22.0625 c -8.00799,0 -14.46875,8.233471 -14.46875,18.34375 0,10.110281 6.46076,18.3125 14.46875,18.3125 8.007964,0 14.5,-8.202219 14.5,-18.3125 0,-10.110279 -6.492036,-18.34375 -14.5,-18.34375 z m 14.59375,42.625 c -1.084349,0.01779 -2.16966,0.96244 -3.28125,2.8125 -2.524334,4.201348 -6.902298,6.40625 -11.3125,6.40625 -4.305998,0 -8.233803,-2.299966 -11.09375,-6.09375 -2.401309,-3.185391 -5.071294,-2.974064 -6.875,-0.03125 -4.747572,7.745847 -7.588892,18.627788 -8.25,30.8125 l 30.71875,0 c 1.677101,-10.696397 4.855554,-20.289186 9.5625,-27.96875 0.852688,-1.39119 2.043638,-2.68634 3.46875,-3.625 -1.016878,-1.549136 -1.972608,-2.32833 -2.9375,-2.3125 z m 43.250001,4.625 c -1.324021,0.02172 -2.64272,1.178527 -4,3.4375 -3.08228,5.129959 -8.427525,7.8125 -13.8125,7.8125 -5.257741,0 -10.039178,-2.805187 -13.53125,-7.4375 -2.932064,-3.889448 -6.203877,-3.624501 -8.406251,-0.03125 -5.796914,9.457889 -9.255269,22.747137 -10.0625,37.625 l 64.031258,0 C 112.28018,95.7478 108.62524,82.425102 102.98438,72.8125 c -1.414,-2.409613 -2.73848,-3.521722 -4.062507,-3.5 z"/>
</svg>