<?xml version="1.0" encoding="iso-8859-1"?>
<!-- Source: https://www.svgrepo.com/svg/241691/email-mail -->
<svg version="1.1" id="Layer_1" xmlns="http://www.w3.org/2000/svg" xmlns:xlink="http://www.w3.org/1999/xlink"
	 viewBox="0 0 505 505" xml:space="preserve">
<circle style="fill:#324A5E;" cx="252.5" cy="252.5" r="252.5"/>
<rect x="100.6" y="200.9" style="fill:#FFD05B;" width="303.7" height="198.5"/>
<polygon style="fill:#84DBFF;" points="252.5,85.3 100.6,200.9 252.5,316.4 404.4,200.9 "/>
<polygon style="fill:#FF7058;" points="404.4,200.8 366.3,229.8 252.5,316.4 138.7,229.8 100.6,200.8 138.7,171.9 216.5,112.7
	252.5,85.3 288.5,112.7 366.3,171.9 "/>
<polygon style="fill:#FFFFFF;" points="333.3,112.7 138.7,112.7 138.7,229.8 252.5,316.4 366.3,229.8 366.3,145.7 333.3,145.7 "/>
<polygon style="fill:#CED5E0;" points="333.3,112.7 333.3,145.7 366.3,145.7 "/>
<polygon style="fill:#F9B54C;" points="225.1,279.2 100.6,399.3 404.4,399.3 279.9,279.2 "/>
<g>
	<rect x="173.2" y="163.3" style="fill:#4CDBC4;" width="161.7" height="14.8"/>
	<rect x="173.2" y="195.6" style="fill:#4CDBC4;" width="161.7" height="14.8"/>
	<rect x="173.2" y="227.9" style="fill:#4CDBC4;" width="98.4" height="14.8"/>
</g>
</svg>